<?xml version="1.0" standalone="no"?><!DOCTYPE svg PUBLIC "-//W3C//DTD SVG 1.1//EN" "http://www.w3.org/Graphics/SVG/1.1/DTD/svg11.dtd"><svg t="1756451979608" class="icon" viewBox="0 0 1096 1024" version="1.1" xmlns="http://www.w3.org/2000/svg" p-id="19582" xmlns:xlink="http://www.w3.org/1999/xlink" width="214.0625" height="200"><path d="M804.1 154.2c13.1 0 27 0.7 41.9 2.2 90.7 8.9 195.6 91.9 208.4 251.1v53c-11 141.2-110.6 312.9-392.7 524.9-41.6 31.2-99.1 31.2-140.6 0-282.1-212-381.6-383.8-392.7-524.9v-53c12.8-159.1 117.7-242.2 208.4-251.1 14.9-1.5 28.9-2.2 41.9-2.2 104.8 0 155.1 45.3 212.7 113.9 57.6-68.6 107.9-113.9 212.7-113.9" fill="#5ECEF4" p-id="19583"></path><path d="M544.9 1024c-28.9 0-56.4-9.2-79.5-26.5-29.1-21.9-56.9-43.8-82.8-65.3-6.5-5.4-7.3-15-2-21.4 5.4-6.5 15-7.3 21.4-2 25.5 21.2 52.9 42.8 81.6 64.4 36 27.1 86.3 27.1 122.3 0 247.4-186 373.9-353.9 386.6-513.4V408c-12.4-150.6-109.5-228.2-194.7-236.5-14.2-1.4-27.8-2.1-40.5-2.1-102.1 0-147.7 45-201 108.5-2.9 3.4-7.2 5.4-11.7 5.4s-8.8-2-11.7-5.4c-53.3-63.5-98.9-108.5-201-108.5-12.6 0-26.2 0.7-40.5 2.1-85.2 8.3-182.3 85.9-194.6 236.5v51.8c5.8 72.2 36 147.8 89.9 224.9 4.8 6.9 3.1 16.4-3.7 21.2-6.9 4.8-16.4 3.1-21.2-3.7-29.6-42.3-52.7-84.6-68.6-125.8-14.8-38.5-23.9-77.1-26.8-114.8v-54.2-1.2c6.1-76.4 33.5-142.5 79-191.1 20.2-21.5 43.3-39 68.6-51.8 24.2-12.2 49.3-19.7 74.4-22.1 15.2-1.5 29.8-2.2 43.4-2.2 52.3 0 94.3 10.6 131.9 33.4 29.9 18.1 54.6 42.1 80.7 72.2 26.2-30.1 50.9-54.2 80.7-72.2 37.7-22.8 79.6-33.4 131.9-33.4 13.6 0 28.2 0.8 43.4 2.2 25.2 2.5 50.2 9.9 74.4 22.1 25.3 12.8 48.4 30.2 68.6 51.8 45.6 48.6 72.9 114.7 79.1 191.1V461.6c-3 38.1-12.2 77.2-27.3 116.1-16.2 41.7-39.8 84.5-70.1 127.4-32.1 45.5-72.8 92.4-121 139.5-50.8 49.7-111.5 101.2-180.3 152.9-22.5 17.3-50 26.5-78.9 26.5zM330.2 881.5c-3.7 0-7.4-1.3-10.3-4-44.9-41.2-84.4-82.3-117.3-122.2-5.3-6.5-4.4-16.1 2.1-21.4 6.5-5.3 16.1-4.4 21.4 2.1 32 38.8 70.4 78.9 114.3 119.1 6.2 5.7 6.6 15.3 0.9 21.5-2.9 3.3-7 4.9-11.1 4.9z" fill="#030000" p-id="19584"></path><path d="M724.3 826.2c-4.1 0-8.1-1.6-11.1-4.8-5.8-6.1-5.4-15.8 0.7-21.5 28.7-27 55.1-54 78.5-80.3 7.9-8.9 15.6-17.9 22.9-26.7 5.3-6.5 14.9-7.4 21.4-2.1 6.5 5.3 7.4 14.9 2.1 21.4-7.5 9.1-15.5 18.4-23.6 27.6-23.9 27-51 54.7-80.4 82.3-3 2.7-6.7 4.1-10.5 4.1zM879.4 646.9c-2.9 0-5.7-0.8-8.3-2.5-7-4.6-9-14-4.4-21.1 7-10.7 13.6-21.5 19.7-32.1 6.4-11.3 12.4-22.6 17.8-33.8 3.7-7.6 12.7-10.7 20.3-7.1 7.6 3.7 10.7 12.7 7.1 20.3-5.7 11.8-12 23.8-18.8 35.7-6.4 11.1-13.3 22.4-20.6 33.6-3 4.5-7.8 7-12.8 7z" fill="#FFFFFF" p-id="19585"></path><path d="M577.5 54.8a15.6 2.9 90 1 0 5.8 0 15.6 2.9 90 1 0-5.8 0Z" fill="#E61F19" p-id="19586"></path><path d="M564.356363 59.633967a15.6 2.9 60 1 0 5.022948-2.9 15.6 2.9 60 1 0-5.022948 2.9Z" fill="#E61F19" p-id="19587"></path><path d="M555.314663 70.442268a15.6 2.9 30 1 0 2.9-5.022947 15.6 2.9 30 1 0-2.9 5.022947Z" fill="#E61F19" p-id="19588"></path><path d="M537.3 81.4a15.6 2.9 0 1 0 31.2 0 15.6 2.9 0 1 0-31.2 0Z" fill="#E61F19" p-id="19589"></path><path d="M542.801772 102.797919a2.9 15.6 60 1 0 27.019992-15.6 2.9 15.6 60 1 0-27.019992 15.6Z" fill="#E61F19" p-id="19590"></path><path d="M558.192751 118.553441a2.9 15.6 30 1 0 15.6-27.019992 2.9 15.6 30 1 0-15.6 27.019992Z" fill="#E61F19" p-id="19591"></path><path d="M576.6 108.9a15.6 2.9 90 1 0 5.8 0 15.6 2.9 90 1 0-5.8 0Z" fill="#E61F19" p-id="19592"></path><path d="M590.477144 106.967519a15.6 2.9 60 1 0 5.022947-2.9 15.6 2.9 60 1 0-5.022947 2.9Z" fill="#E61F19" p-id="19593"></path><path d="M601.655902 98.327696a15.6 2.9 30 1 0 2.9-5.022947 15.6 2.9 30 1 0-2.9 5.022947Z" fill="#E61F19" p-id="19594"></path><path d="M591.4 82.4a15.6 2.9 0 1 0 31.2 0 15.6 2.9 0 1 0-31.2 0Z" fill="#E61F19" p-id="19595"></path><path d="M590.085324 76.590536a2.9 15.6 60 1 0 27.019993-15.6 2.9 15.6 60 1 0-27.019993 15.6Z" fill="#E61F19" p-id="19596"></path><path d="M586.078179 72.212202a2.9 15.6 30 1 0 15.6-27.019993 2.9 15.6 30 1 0-15.6 27.019993Z" fill="#E61F19" p-id="19597"></path><path d="M1077.6 271.4m-19 0a19 19 0 1 0 38 0 19 19 0 1 0-38 0Z" fill="#2C65AF" p-id="19598"></path><path d="M214.4 101.4c-2.9 0-5.3-2.4-5.3-5.3V38c0-2.9 2.4-5.3 5.3-5.3s5.3 2.4 5.3 5.3v58c0 3-2.4 5.4-5.3 5.4z" fill="#EF8218" p-id="19599"></path><path d="M243.4 72.4h-58c-2.9 0-5.3-2.4-5.3-5.3s2.4-5.3 5.3-5.3h58c2.9 0 5.3 2.4 5.3 5.3s-2.4 5.3-5.3 5.3z" fill="#EF8218" p-id="19600"></path><path d="M860.8 2.1c-7 3.6-10.6 10.8-7.9 15.9l52 100.6c2.7 5.2 10.5 6.4 17.6 2.8 7-3.6 10.6-10.8 7.9-15.9l-52-100.6c-2.7-5.2-10.6-6.4-17.6-2.8z" fill="#DAB647" p-id="19601"></path><path d="M831.9 92.6c3.6 7 10.8 10.6 15.9 7.9l100.6-52c5.2-2.7 6.4-10.5 2.8-17.6-3.6-7-10.8-10.6-15.9-7.9L834.7 75c-5.2 2.7-6.4 10.5-2.8 17.6z" fill="#DAB647" p-id="19602"></path><path d="M48.2 240.6c-26.6 0-48.2-21.4-48.2-47.7s21.6-47.7 48.2-47.7 48.2 21.4 48.2 47.7-21.6 47.7-48.2 47.7z m0-82.8c-19.5 0-35.4 15.8-35.4 35.1S28.7 228 48.2 228s35.4-15.8 35.4-35.1-15.8-35.1-35.4-35.1z" fill="#E62A52" p-id="19603"></path></svg>