<?xml version="1.0" standalone="no"?><!DOCTYPE svg PUBLIC "-//W3C//DTD SVG 1.1//EN" "http://www.w3.org/Graphics/SVG/1.1/DTD/svg11.dtd"><svg t="1756451962901" class="icon" viewBox="0 0 1034 1024" version="1.1" xmlns="http://www.w3.org/2000/svg" p-id="17497" xmlns:xlink="http://www.w3.org/1999/xlink" width="201.953125" height="200"><path d="M552.96 855.04c25.6 25.6 66.56 25.6 87.04 0l240.64-230.4c61.44-61.44 61.44-158.72 0-220.16s-168.96-61.44-230.4 0c-30.72 25.6-76.8 25.6-102.4 0-61.44-61.44-168.96-61.44-230.4 0S256 563.2 317.44 624.64l235.52 230.4z" fill="#5AC8FA" p-id="17498"></path><path d="M450.56 870.4c35.84 35.84 87.04 35.84 122.88 0l332.8-332.8c87.04-87.04 87.04-230.4 0-317.44s-230.4-87.04-317.44 0l-5.12 5.12c-40.96 40.96-102.4 40.96-143.36 0l-5.12-5.12C348.16 133.12 204.8 133.12 117.76 220.16s-87.04 230.4 0 317.44L450.56 870.4z m-35.84 35.84l-332.8-332.8c-107.52-107.52-107.52-281.6 0-394.24s281.6-107.52 394.24 0l5.12 5.12c20.48 20.48 51.2 20.48 71.68 0l5.12-5.12c107.52-107.52 281.6-107.52 394.24 0s107.52 281.6 0 394.24l-332.8 332.8c-61.44 56.32-153.6 56.32-204.8 0z" fill="" p-id="17499"></path></svg>