<?xml version="1.0" standalone="no"?><!DOCTYPE svg PUBLIC "-//W3C//DTD SVG 1.1//EN" "http://www.w3.org/Graphics/SVG/1.1/DTD/svg11.dtd"><svg t="1756451921932" class="icon" viewBox="0 0 1024 1024" version="1.1" xmlns="http://www.w3.org/2000/svg" p-id="14593" xmlns:xlink="http://www.w3.org/1999/xlink" width="200" height="200"><path d="M887.784319 1008.170171H272.352214a94.978976 94.978976 0 0 1-94.978976-94.978976V472.314618a94.978976 94.978976 0 0 1 94.978976-94.978976h615.432105a94.978976 94.978976 0 0 1 94.978976 94.978976v440.876577a94.978976 94.978976 0 0 1-94.978976 94.978976z" fill="#5CB2E4" p-id="14594"></path><path d="M887.784319 1024H272.352214c-61.103141 0-110.808805-49.721494-110.808806-110.808805V472.314618c0-61.103141 49.705664-110.808805 110.808806-110.808805h615.432105c61.087311 0 110.808805 49.705664 110.808805 110.808805v440.892406c0 61.087311-49.705664 110.792976-110.808805 110.792976zM272.352214 393.165471c-43.642839 0-79.149147 35.506307-79.149147 79.149147v440.892406c0 43.642839 35.506307 79.149147 79.149147 79.149147h615.432105c43.642839 0 79.149147-35.506307 79.149146-79.149147V472.314618c0-43.642839-35.506307-79.149147-79.149146-79.149147H272.352214z" fill="#433256" p-id="14595"></path><path d="M791.380658 1008.170171H175.948553a94.978976 94.978976 0 0 1-94.978976-94.978976V110.808805a94.978976 94.978976 0 0 1 94.978976-94.978976h615.432105a94.978976 94.978976 0 0 1 94.978976 94.978976v802.38239a94.978976 94.978976 0 0 1-94.978976 94.978976z" fill="#5CB2E4" p-id="14596"></path><path d="M791.364828 1024H175.948553c-61.103141 0-110.808805-49.721494-110.808805-110.808805V110.808805c0-61.103141 49.705664-110.808805 110.808805-110.808805h615.432105c61.087311 0 110.808805 49.705664 110.808805 110.808805v802.38239c-0.01583 61.103141-49.721494 110.808805-110.824635 110.808805zM175.948553 31.659659c-43.642839 0-79.149147 35.506307-79.149147 79.149146v802.38239c0 43.642839 35.506307 79.149147 79.149147 79.149146h615.432105c43.642839 0 79.149147-35.506307 79.149147-79.149146V110.808805c0-43.642839-35.506307-79.149147-79.149147-79.149146H175.948553z" fill="#433256" p-id="14597"></path><path d="M378.871135 790.383379V488.366065a73.956963 73.956963 0 1 0-147.913925 0V790.383379h147.913925z" fill="#F17F4D" p-id="14598"></path><path d="M394.700965 806.229038H215.111551v-317.862973c0-49.515706 40.286916-89.786792 89.802622-89.786792s89.786792 40.271086 89.786792 89.786792v317.862973z m-147.929756-31.659659h116.270097v-286.203314a58.190453 58.190453 0 0 0-58.127133-58.127134 58.206282 58.206282 0 0 0-58.142964 58.127134v286.203314z" fill="#433256" p-id="14599"></path><path d="M557.621568 790.383379V426.724709a73.956963 73.956963 0 1 0-147.913925 0V790.383379h147.913925z" fill="#F6BC42" p-id="14600"></path><path d="M573.451397 806.229038H393.861984V426.724709a89.881771 89.881771 0 0 1 89.786792-89.786792 89.881771 89.881771 0 0 1 89.786792 89.786792v379.504329z m-147.929755-31.659659h116.270097V426.724709c0-32.055404-26.071729-58.127133-58.127134-58.127133s-58.127133 26.071729-58.127133 58.127133v347.84467z" fill="#433256" p-id="14601"></path><path d="M736.372001 790.383379V356.867673a73.956963 73.956963 0 1 0-147.913925 0V790.383379h147.913925z" fill="#E9634E" p-id="14602"></path><path d="M752.20183 806.229038H572.612417V356.867673c0-49.515706 40.271086-89.802622 89.786792-89.802622s89.802622 40.286916 89.802621 89.802622v449.361365z m-147.929755-31.659659h116.270097V356.867673a58.206282 58.206282 0 0 0-58.142963-58.142964 58.206282 58.206282 0 0 0-58.127134 58.142964v417.701706z" fill="#433256" p-id="14603"></path><path d="M822.517932 843.033391m-154.340836 0a154.340836 154.340836 0 1 0 308.681672 0 154.340836 154.340836 0 1 0-308.681672 0Z" fill="#5CB2E4" p-id="14604"></path><path d="M822.517932 1013.219886c-93.839228 0-170.186495-76.347267-170.186495-170.186495s76.347267-170.170665 170.186495-170.170665 170.170665 76.331437 170.170666 170.170665-76.331437 170.186495-170.170666 170.186495z m0-308.697502c-76.378927 0-138.526837 62.13208-138.526836 138.511007s62.14791 138.526837 138.526836 138.526837 138.511007-62.14791 138.511007-138.526837-62.13208-138.511007-138.511007-138.511007z" fill="#433256" p-id="14605"></path><path d="M761.747217 900.891417l-80.146426-82.948305a15.829829 15.829829 0 0 1 22.747465-22.019293l59.34603 61.435568 64.696513-55.910958 54.327974 36.519417 22.478358-26.799901a15.845659 15.845659 0 0 1 24.267128 20.34133l-40.77764 48.597576-57.873856-38.89389-69.065546 59.678456z" fill="#433256" p-id="14606"></path><path d="M233.632451 182.72372h58.222112" fill="#F6BC42" p-id="14607"></path><path d="M291.854563 198.53772h-58.206282a15.829829 15.829829 0 0 1 0-31.659659h58.206282a15.829829 15.829829 0 0 1 0 31.659659z" fill="#433256" p-id="14608"></path><path d="M378.871135 182.72372h58.222113" fill="#F6BC42" p-id="14609"></path><path d="M437.093248 198.53772H378.871135a15.829829 15.829829 0 0 1 0-31.659659h58.206283a15.829829 15.829829 0 0 1 0.01583 31.659659z" fill="#433256" p-id="14610"></path><path d="M237.890675 895.161019h58.222113" fill="#F6BC42" p-id="14611"></path><path d="M296.112788 911.006678h-58.222113a15.829829 15.829829 0 1 1 0-31.659658h58.222113a15.829829 15.829829 0 1 1 0 31.659658z" fill="#433256" p-id="14612"></path><path d="M233.632451 282.91071h58.222112" fill="#F6BC42" p-id="14613"></path><path d="M291.854563 298.740539h-58.206282a15.829829 15.829829 0 0 1 0-31.659658h58.206282a15.829829 15.829829 0 0 1 0 31.659658z" fill="#433256" p-id="14614"></path></svg>